<?xml version="1.0" encoding="UTF-8" standalone="no"?>
<!DOCTYPE svg PUBLIC "-//W3C//DTD SVG 1.1//EN" "http://www.w3.org/Graphics/SVG/1.1/DTD/svg11.dtd">
<svg version="1.1" xmlns="http://www.w3.org/2000/svg" xmlns:xlink="http://www.w3.org/1999/xlink" preserveAspectRatio="xMidYMid meet" viewBox="0 0 640 640" width="640" height="640"><defs><path d="M245.6 44.9C245.4 47.3 245.2 49.8 244.9 52.5C245.3 47.6 245.46 46.42 245.6 44.9Z" id="a2XNm1bm5i"></path><path d="M375.24 496.99C350.72 494.28 356.4 492.44 348.33 482.96C340.26 473.48 346.24 478.65 355.96 476.93C365.67 475.2 353.71 475.08 343.4 473.11C333.08 471.14 321.12 473.85 313.64 465.23C306.17 456.49 296.6 441.6 296.6 441.6C302.31 442.19 330.87 445.14 382.27 450.46L417.26 462.52L433.41 494.04C410.98 497.81 391.59 498.8 375.24 496.99Z" id="h1gtX1hrP"></path><linearGradient id="gradientajt4pt6ak" gradientUnits="userSpaceOnUse" x1="295.55" y1="424.5" x2="442.85" y2="510.39"><stop style="stop-color: #54b948;stop-opacity: 1" offset="0%"></stop><stop style="stop-color: #00a651;stop-opacity: 1" offset="37.64%"></stop><stop style="stop-color: #005826;stop-opacity: 1" offset="100%"></stop></linearGradient><path d="M347.58 457.72C320.37 454.77 307.81 454.4 303.32 449.72C298.84 445.04 289.87 433.47 297.64 436.79C305.42 440.12 334.72 443.44 328.29 439.38C321.86 435.44 311.25 434.33 292.41 427.69C273.57 421.04 273.57 422.76 266.69 413.16C259.66 403.56 274.47 410.08 281.64 412.79C288.97 415.5 287.92 412.42 271.48 404.67C255.03 396.91 258.17 402.7 248.15 388.91C248.15 388.91 290.61 397.16 330.84 406.63C370.91 416.11 401.11 435.81 401.11 435.81C402.25 437.93 407.93 448.51 418.16 467.57C389.25 462.97 365.72 459.69 347.58 457.72Z" id="a3g03oGVzY"></path><linearGradient id="gradientnbTEh5TrI" gradientUnits="userSpaceOnUse" x1="238.2" y1="376.59" x2="430.62" y2="488.79"><stop style="stop-color: #54b948;stop-opacity: 1" offset="0%"></stop><stop style="stop-color: #00a651;stop-opacity: 1" offset="37.64%"></stop><stop style="stop-color: #005826;stop-opacity: 1" offset="100%"></stop></linearGradient><path d="M322.91 410.08C279.1 402.45 272.97 400.6 261.61 396.29C250.24 392.11 250.24 392.11 246.36 386.2C242.47 380.41 250.54 384.35 258.77 388.42C266.99 392.48 299.44 399.25 311.25 396.42C322.91 393.59 315.29 392.6 305.72 389.03C296.3 385.46 267.89 384.72 242.47 367.61C217.05 350.5 213.31 329.7 213.31 329.7C213.31 329.7 250.69 357.39 301.53 359.49C352.37 361.58 375.39 397.53 375.39 397.53C376.93 400.16 384.6 413.33 398.42 437.04C377.19 424.16 352.02 415.17 322.91 410.08Z" id="aQTQQYlYe"></path><linearGradient id="gradienta190rQgae6" gradientUnits="userSpaceOnUse" x1="195.68" y1="322.03" x2="420.57" y2="453.16"><stop style="stop-color: #54b948;stop-opacity: 1" offset="0%"></stop><stop style="stop-color: #00a651;stop-opacity: 1" offset="37.64%"></stop><stop style="stop-color: #005826;stop-opacity: 1" offset="100%"></stop></linearGradient><path d="M318.43 372.29C279.1 365.27 238.88 357.64 227.97 348.9C217.05 340.28 210.62 328.34 213.91 327.97C217.2 327.6 259.66 347.92 270.88 347.05C282.09 346.19 280.9 344.47 267.89 339.3C254.88 334.01 223.63 329.45 211.37 319.97C199.11 310.49 194.17 294.37 194.17 294.37C198.19 295.7 218.28 302.34 254.43 314.31C296.24 314.6 319.46 314.77 324.11 314.8C324.11 314.8 333.38 329.2 343.25 341.51C353.12 353.82 367.77 391 367.77 391C357.9 387.26 357.75 379.31 318.43 372.29Z" id="aDvqmHQ3w"></path><linearGradient id="gradientc2wNO8g4im" gradientUnits="userSpaceOnUse" x1="185.04" y1="279.01" x2="392.99" y2="400.27"><stop style="stop-color: #54b948;stop-opacity: 1" offset="0%"></stop><stop style="stop-color: #00a651;stop-opacity: 1" offset="37.64%"></stop><stop style="stop-color: #005826;stop-opacity: 1" offset="100%"></stop></linearGradient><path d="M278.65 323.42C234.69 319.85 211.67 316.65 201.35 305.08C190.88 293.5 192.23 290.67 202.99 295.84C213.76 301.01 292.86 312.22 290.76 305.08C288.67 297.81 269.53 300.52 234.84 294.37C200.15 288.21 187.3 288.21 173.84 264.33C173.84 264.33 231.4 257.93 264.6 263.71C297.94 269.62 295.25 260.76 309.75 277.01C324.11 293.26 339.36 338.07 339.36 338.07C327.22 335.14 322.61 326.87 278.65 323.42Z" id="f2sygjjwG0"></path><linearGradient id="gradientb3oAG1bt5B" gradientUnits="userSpaceOnUse" x1="172.96" y1="242.1" x2="358.5" y2="350.29"><stop style="stop-color: #54b948;stop-opacity: 1" offset="0%"></stop><stop style="stop-color: #00a651;stop-opacity: 1" offset="37.64%"></stop><stop style="stop-color: #005826;stop-opacity: 1" offset="100%"></stop></linearGradient><path d="M246.06 273.69C191.18 270.61 179.97 274.92 171.6 261.01C163.37 247.1 159.19 241.8 174.14 247.71C189.09 253.74 236.94 258.17 232.9 253.37C228.86 248.7 181.02 250.67 166.81 234.42C152.61 218.17 148.57 200.07 148.57 200.07C148.57 200.07 176.53 218.17 228.56 218.41C232.94 218.95 267.99 223.29 272.37 223.83C272.37 223.83 283.59 229.49 297.04 256.7C310.65 283.9 310.65 283.9 310.65 283.9C297.73 281.86 300.78 276.76 246.06 273.69Z" id="b1co3FUM4f"></path><linearGradient id="gradientb26SkQGHH4" gradientUnits="userSpaceOnUse" x1="134.55" y1="192.97" x2="324.13" y2="303.51"><stop style="stop-color: #54b948;stop-opacity: 1" offset="0%"></stop><stop style="stop-color: #00a651;stop-opacity: 1" offset="37.64%"></stop><stop style="stop-color: #005826;stop-opacity: 1" offset="100%"></stop></linearGradient><path d="M224.53 224.69C182.06 223.09 162.47 221.37 154.1 209.3C145.73 197.24 145.28 189.98 151.26 194.16C157.24 198.35 204.34 202.66 193.58 196.87C182.81 190.96 159.04 191.95 150.51 182.84C141.99 173.73 139.75 159.2 139.75 159.2C139.75 159.2 219.89 163.39 242.77 182.1C265.64 200.93 281.94 231.09 281.94 231.09C270.46 229.81 266.99 226.29 224.53 224.69Z" id="e284bOKqNs"></path><linearGradient id="gradienta2O0zoqATt" gradientUnits="userSpaceOnUse" x1="126.23" y1="154.63" x2="291.34" y2="250.91"><stop style="stop-color: #54b948;stop-opacity: 1" offset="0%"></stop><stop style="stop-color: #00a651;stop-opacity: 1" offset="37.64%"></stop><stop style="stop-color: #005826;stop-opacity: 1" offset="100%"></stop></linearGradient><path d="M142.14 166.46C142.14 166.46 135.56 153.05 143.78 153.54C152.01 154.03 187.15 157.35 175.63 151.81C164.12 146.27 140.2 144.43 134.96 136.3C129.73 128.18 123.3 116.12 132.57 115.25C141.84 114.39 142.74 109.34 132.57 102.7C122.4 96.05 124.94 91.37 123 73.4C123 73.4 201.35 112.3 244.11 184.81C223.72 181.14 184.9 159.57 142.14 166.46Z" id="bxsur3iRw"></path><linearGradient id="gradienta3qovGSNgK" gradientUnits="userSpaceOnUse" x1="107.95" y1="105.48" x2="254.87" y2="190.96"><stop style="stop-color: #54b948;stop-opacity: 1" offset="0%"></stop><stop style="stop-color: #00a651;stop-opacity: 1" offset="37.64%"></stop><stop style="stop-color: #005826;stop-opacity: 1" offset="100%"></stop></linearGradient><path d="M228.11 118.21C218.1 104.54 223.93 99.25 193.28 90.14C162.62 81.03 162.92 78.57 160.68 81.28C158.44 83.99 167.41 95.68 156.34 87.31C145.28 78.94 129.58 74.14 123.15 73.52C123.15 73.52 166.06 98.51 192.98 126.46C219.89 154.28 247.55 190.71 258.17 201.67C268.78 212.5 277.46 133.84 271.48 123.87C265.5 113.9 228.71 90.63 230.81 97.4C232.6 103.56 237.98 131.75 228.11 118.21Z" id="d3kOT0FY8K"></path><linearGradient id="gradienti8waW1HEl" gradientUnits="userSpaceOnUse" x1="202.08" y1="46.72" x2="193.32" y2="184.8"><stop style="stop-color: #54b948;stop-opacity: 1" offset="0%"></stop><stop style="stop-color: #00a651;stop-opacity: 1" offset="37.64%"></stop><stop style="stop-color: #005826;stop-opacity: 1" offset="100%"></stop></linearGradient><path d="M293.61 136.67C289.27 132.12 291.36 145.91 289.57 158.22C287.77 170.53 282.24 190.22 278.8 165.11C275.36 140 280.3 129.9 271.18 120.67C261.91 111.44 262.65 113.16 257.12 110.7C251.74 108.24 256.22 136.06 251.59 158.71C246.95 181.36 243.07 180.99 248 190.35C252.94 199.7 288.82 243.89 297.19 256.7C305.42 269.5 315.73 156.12 315.73 156.12C311.31 152.23 297.94 141.1 293.61 136.67Z" id="hochHB3py"></path><linearGradient id="gradientg1mG64QxV5" gradientUnits="userSpaceOnUse" x1="286.65" y1="76.35" x2="276.33" y2="239.19"><stop style="stop-color: #54b948;stop-opacity: 1" offset="0%"></stop><stop style="stop-color: #00a651;stop-opacity: 1" offset="37.64%"></stop><stop style="stop-color: #005826;stop-opacity: 1" offset="100%"></stop></linearGradient><path d="M330.99 323.54C338.16 333.02 340.7 249.93 350.27 229.37C359.84 208.93 365.82 213.12 360.44 206.1C352.67 196.01 335.17 177.05 335.02 181.11C334.87 185.18 318.28 258.91 317.38 241.19C316.48 223.46 325.75 176.56 323.96 168.31C322.16 160.06 314.24 155.02 310.2 151.45C310.2 151.45 298.69 177.54 295.85 203.64C293.01 229.74 286.88 239.96 291.66 249.68C293.31 253 323.81 314.06 330.99 323.54Z" id="c1b3O6qvEC"></path><linearGradient id="gradientdWwzejr5M" gradientUnits="userSpaceOnUse" x1="333.51" y1="110.52" x2="321.31" y2="303.03"><stop style="stop-color: #54b948;stop-opacity: 1" offset="0%"></stop><stop style="stop-color: #00a651;stop-opacity: 1" offset="37.64%"></stop><stop style="stop-color: #005826;stop-opacity: 1" offset="100%"></stop></linearGradient><path d="M322.31 295.23C326.8 276.39 353.86 197.61 352.67 196.5C349.83 193.67 365.38 206.84 365.38 217.18C365.38 227.52 358.8 257.19 362.09 253.62C365.38 250.05 367.47 220.87 371.81 225.68C376.14 230.35 382.12 232.08 386.16 238.36C390.2 244.63 354.46 354.32 346.98 351.85C342.05 340.53 317.83 314.06 322.31 295.23Z" id="b3GlSE2lLT"></path><linearGradient id="gradientchXAIVcdD" gradientUnits="userSpaceOnUse" x1="361.22" y1="158.36" x2="350.14" y2="333.14"><stop style="stop-color: #54b948;stop-opacity: 1" offset="0%"></stop><stop style="stop-color: #00a651;stop-opacity: 1" offset="37.64%"></stop><stop style="stop-color: #005826;stop-opacity: 1" offset="100%"></stop></linearGradient><path d="M402.46 448.12C402.46 448.12 415.02 396.29 445.97 386.08C445.97 386.08 448.21 393.83 444.17 401.22C440.14 408.6 424.59 438.4 428.03 453.78C431.61 469.17 443.13 428.92 451.05 437.9C459.13 446.89 436.1 498.1 431.61 491.45C425.78 482.79 405.37 452.45 402.46 448.12Z" id="jpDLxV7fm"></path><linearGradient id="gradientaiZ4SJdq" gradientUnits="userSpaceOnUse" x1="465.09" y1="441.69" x2="395.35" y2="434.67"><stop style="stop-color: #54b948;stop-opacity: 1" offset="0%"></stop><stop style="stop-color: #00a651;stop-opacity: 1" offset="37.64%"></stop><stop style="stop-color: #005826;stop-opacity: 1" offset="100%"></stop></linearGradient><path d="M375.54 407.74C383.02 418.7 415.76 316.4 415.76 316.4C415.76 316.4 416.51 300.89 414.87 296.46C413.22 292.03 408.59 275.53 406.34 287.72C405.6 291.66 401.41 315.17 392.89 327.48C384.37 339.79 383.92 342.62 394.53 295.23C405.15 247.71 383.47 234.79 383.47 234.79C383.47 234.79 366.12 301.14 357.45 317.26C348.78 333.39 342.65 344.35 348.63 356.41C354.01 366.68 368.07 396.79 375.54 407.74Z" id="a9zNDKNiM"></path><linearGradient id="gradienta8xQYwlmzG" gradientUnits="userSpaceOnUse" x1="355.52" y1="250.5" x2="403.86" y2="391.11"><stop style="stop-color: #54b948;stop-opacity: 1" offset="0%"></stop><stop style="stop-color: #00a651;stop-opacity: 1" offset="37.64%"></stop><stop style="stop-color: #005826;stop-opacity: 1" offset="100%"></stop></linearGradient><path d="M446.12 386.08C446.12 386.08 444.92 378.32 435.95 381.77C426.98 385.22 443.58 367.61 441.93 361.58C440.29 355.55 434.16 338.19 430.42 341.64C426.68 345.08 409.93 393.71 404.85 393.09C399.77 392.48 421 353.46 427.13 332.53C433.26 311.6 418.31 302 414.87 296.46C414.87 296.46 396.48 349.27 385.26 376.23C374.05 403.19 375.69 407.74 375.69 407.74C377.49 410.43 386.46 423.89 402.61 448.12C411.78 413.73 426.28 393.05 446.12 386.08Z" id="c4EZ1EaSVT"></path><linearGradient id="gradiente8sElNl1f" gradientUnits="userSpaceOnUse" x1="384.31" y1="311.61" x2="426.01" y2="432.88"><stop style="stop-color: #54b948;stop-opacity: 1" offset="0%"></stop><stop style="stop-color: #00a651;stop-opacity: 1" offset="37.64%"></stop><stop style="stop-color: #005826;stop-opacity: 1" offset="100%"></stop></linearGradient><path d="M425.48 482.22C426.26 483.39 432.48 492.74 433.26 493.91C433.26 493.91 461.22 454.64 456.73 447.14C452.25 439.75 450.6 435.32 449.86 436.79C444.98 445.88 429.37 476.93 425.48 482.22Z" id="dLFNDACPZ"></path><linearGradient id="gradientbiIPnTsKk" gradientUnits="userSpaceOnUse" x1="419.92" y1="475.3" x2="476.82" y2="449.4"><stop style="stop-color: #54b948;stop-opacity: 1" offset="0%"></stop><stop style="stop-color: #00a651;stop-opacity: 1" offset="37.64%"></stop><stop style="stop-color: #005826;stop-opacity: 1" offset="100%"></stop></linearGradient><path d="M186.55 120.42C204.64 137.66 220.79 156.49 235.89 175.82C250.99 195.15 268.78 214.35 282.39 234.54C296 254.73 306.31 275.53 319.02 296.09C319.85 297.68 326.43 310.38 327.25 311.97C330.39 317.14 333.53 322.31 336.52 327.48C337.13 328.51 340.17 333.68 345.64 342.99L354.76 358.5C365.62 377.19 371.65 387.57 372.85 389.65C378.98 399.99 384.96 410.33 391.09 420.67C403.35 441.35 415.76 461.91 428.47 482.22C431.61 487.27 434.9 492.44 438.04 497.48C441.33 502.53 444.62 507.58 447.91 512.63C451.2 517.67 454.64 522.72 457.93 527.64C459.57 530.11 461.37 532.57 463.16 535.03C463.43 535.39 465.59 538.24 465.85 538.6C466.75 539.71 467.65 541.06 468.4 541.92C468.41 541.94 468.53 542.03 468.55 542.05C470.49 544.51 470.34 547.59 468.1 548.94C465.85 550.29 462.57 549.43 460.47 546.97C460.47 546.97 460.47 546.85 460.47 546.85C459.28 545.37 458.53 544.14 457.48 542.91C457.21 542.53 455.06 539.47 454.79 539.09C453 536.51 451.35 534.05 449.56 531.46C446.12 526.41 442.83 521.24 439.54 516.07C436.25 510.9 433.11 505.85 429.82 500.68C426.68 495.51 423.54 490.34 420.4 485.17C407.99 464.49 395.88 443.81 383.92 422.88C377.94 412.42 372.1 402.08 366.27 391.62C365.11 389.53 359.28 379.11 348.78 360.35L340.11 344.71C334.81 335.33 331.87 330.12 331.28 329.08C328.29 323.91 325.3 318.74 322.31 313.57C321.52 311.98 315.18 299.28 314.39 297.69C302.13 277.01 292.11 256.2 279.1 235.89C265.94 215.58 248.6 196.38 233.8 176.93C219.14 157.48 203.44 138.4 185.65 121.04C168.01 103.8 150.51 90.51 123 73.4C151.11 88.91 168.6 103.19 186.55 120.42Z" id="dNhET9kNf"></path><linearGradient id="gradientaaHPUdAC3" gradientUnits="userSpaceOnUse" x1="38.27" y1="162.77" x2="545.78" y2="458.7"><stop style="stop-color: #54b948;stop-opacity: 1" offset="0%"></stop><stop style="stop-color: #00a651;stop-opacity: 1" offset="37.64%"></stop><stop style="stop-color: #005826;stop-opacity: 1" offset="100%"></stop></linearGradient></defs><g><g><g><use xlink:href="#a2XNm1bm5i" opacity="1" fill="#024724" fill-opacity="1"></use><g><use xlink:href="#a2XNm1bm5i" opacity="1" fill-opacity="0" stroke="#000000" stroke-width="1" stroke-opacity="0"></use></g></g><g><use xlink:href="#h1gtX1hrP" opacity="1" fill="url(#gradientajt4pt6ak)"></use><g><use xlink:href="#h1gtX1hrP" opacity="1" fill-opacity="0" stroke="#000000" stroke-width="1" stroke-opacity="0"></use></g></g><g><use xlink:href="#a3g03oGVzY" opacity="1" fill="url(#gradientnbTEh5TrI)"></use><g><use xlink:href="#a3g03oGVzY" opacity="1" fill-opacity="0" stroke="#000000" stroke-width="1" stroke-opacity="0"></use></g></g><g><use xlink:href="#aQTQQYlYe" opacity="1" fill="url(#gradienta190rQgae6)"></use><g><use xlink:href="#aQTQQYlYe" opacity="1" fill-opacity="0" stroke="#000000" stroke-width="1" stroke-opacity="0"></use></g></g><g><use xlink:href="#aDvqmHQ3w" opacity="1" fill="url(#gradientc2wNO8g4im)"></use><g><use xlink:href="#aDvqmHQ3w" opacity="1" fill-opacity="0" stroke="#000000" stroke-width="1" stroke-opacity="0"></use></g></g><g><use xlink:href="#f2sygjjwG0" opacity="1" fill="url(#gradientb3oAG1bt5B)"></use><g><use xlink:href="#f2sygjjwG0" opacity="1" fill-opacity="0" stroke="#000000" stroke-width="1" stroke-opacity="0"></use></g></g><g><use xlink:href="#b1co3FUM4f" opacity="1" fill="url(#gradientb26SkQGHH4)"></use><g><use xlink:href="#b1co3FUM4f" opacity="1" fill-opacity="0" stroke="#000000" stroke-width="1" stroke-opacity="0"></use></g></g><g><use xlink:href="#e284bOKqNs" opacity="1" fill="url(#gradienta2O0zoqATt)"></use><g><use xlink:href="#e284bOKqNs" opacity="1" fill-opacity="0" stroke="#000000" stroke-width="1" stroke-opacity="0"></use></g></g><g><use xlink:href="#bxsur3iRw" opacity="1" fill="url(#gradienta3qovGSNgK)"></use><g><use xlink:href="#bxsur3iRw" opacity="1" fill-opacity="0" stroke="#000000" stroke-width="1" stroke-opacity="0"></use></g></g><g><use xlink:href="#d3kOT0FY8K" opacity="1" fill="url(#gradienti8waW1HEl)"></use><g><use xlink:href="#d3kOT0FY8K" opacity="1" fill-opacity="0" stroke="#000000" stroke-width="1" stroke-opacity="0"></use></g></g><g><use xlink:href="#hochHB3py" opacity="1" fill="url(#gradientg1mG64QxV5)"></use><g><use xlink:href="#hochHB3py" opacity="1" fill-opacity="0" stroke="#000000" stroke-width="1" stroke-opacity="0"></use></g></g><g><use xlink:href="#c1b3O6qvEC" opacity="1" fill="url(#gradientdWwzejr5M)"></use><g><use xlink:href="#c1b3O6qvEC" opacity="1" fill-opacity="0" stroke="#000000" stroke-width="1" stroke-opacity="0"></use></g></g><g><use xlink:href="#b3GlSE2lLT" opacity="1" fill="url(#gradientchXAIVcdD)"></use><g><use xlink:href="#b3GlSE2lLT" opacity="1" fill-opacity="0" stroke="#000000" stroke-width="1" stroke-opacity="0"></use></g></g><g><use xlink:href="#jpDLxV7fm" opacity="1" fill="url(#gradientaiZ4SJdq)"></use><g><use xlink:href="#jpDLxV7fm" opacity="1" fill-opacity="0" stroke="#000000" stroke-width="1" stroke-opacity="0"></use></g></g><g><use xlink:href="#a9zNDKNiM" opacity="1" fill="url(#gradienta8xQYwlmzG)"></use><g><use xlink:href="#a9zNDKNiM" opacity="1" fill-opacity="0" stroke="#000000" stroke-width="1" stroke-opacity="0"></use></g></g><g><use xlink:href="#c4EZ1EaSVT" opacity="1" fill="url(#gradiente8sElNl1f)"></use><g><use xlink:href="#c4EZ1EaSVT" opacity="1" fill-opacity="0" stroke="#000000" stroke-width="1" stroke-opacity="0"></use></g></g><g><use xlink:href="#dLFNDACPZ" opacity="1" fill="url(#gradientbiIPnTsKk)"></use><g><use xlink:href="#dLFNDACPZ" opacity="1" fill-opacity="0" stroke="#000000" stroke-width="1" stroke-opacity="0"></use></g></g><g><use xlink:href="#dNhET9kNf" opacity="1" fill="url(#gradientaaHPUdAC3)"></use><g><use xlink:href="#dNhET9kNf" opacity="1" fill-opacity="0" stroke="#000000" stroke-width="1" stroke-opacity="0"></use></g></g></g></g></svg>