<?xml version="1.0" encoding="UTF-8" standalone="no"?>
<!DOCTYPE svg PUBLIC "-//W3C//DTD SVG 1.1//EN" "http://www.w3.org/Graphics/SVG/1.1/DTD/svg11.dtd">
<svg version="1.1" xmlns="http://www.w3.org/2000/svg" xmlns:xlink="http://www.w3.org/1999/xlink" preserveAspectRatio="xMidYMid meet" viewBox="0 0 640 640" width="640" height="640"><defs><path d="M330.84 490.05C330.84 490.05 362.94 488.45 380.34 484.75C400.94 480.45 417.54 483.35 419.74 483.95C401.96 485.17 387.64 499.75 330.84 490.05Z" id="b4EeKN0jcs"></path><linearGradient id="gradientaL1OvAU3l" gradientUnits="userSpaceOnUse" x1="353.24" y1="510.84" x2="397.34" y2="463.21"><stop style="stop-color: #54b948;stop-opacity: 1" offset="0%"></stop><stop style="stop-color: #00a651;stop-opacity: 1" offset="37.64%"></stop><stop style="stop-color: #005826;stop-opacity: 1" offset="100%"></stop></linearGradient><path d="M271.44 465.05C271.44 465.05 306.34 477.85 342.94 472.25C379.54 466.55 399.04 468.75 406.34 471.85C379.36 470.49 334.94 491.15 271.44 465.05Z" id="caArbLCzh"></path><linearGradient id="gradientc19M77jBi3" gradientUnits="userSpaceOnUse" x1="309.49" y1="500.2" x2="368.37" y2="436.6"><stop style="stop-color: #54b948;stop-opacity: 1" offset="0%"></stop><stop style="stop-color: #00a651;stop-opacity: 1" offset="37.64%"></stop><stop style="stop-color: #005826;stop-opacity: 1" offset="100%"></stop></linearGradient><path d="M250.54 423.85C250.54 423.85 281.14 447.25 332.24 449.45C383.24 451.75 394.14 460.55 394.14 460.55C365.42 453.21 301.54 469.75 250.54 423.85Z" id="b1Otn1sCZg"></path><linearGradient id="gradientbV2Ywmuts" gradientUnits="userSpaceOnUse" x1="298.38" y1="468.1" x2="346.39" y2="416.25"><stop style="stop-color: #54b948;stop-opacity: 1" offset="0%"></stop><stop style="stop-color: #00a651;stop-opacity: 1" offset="37.64%"></stop><stop style="stop-color: #005826;stop-opacity: 1" offset="100%"></stop></linearGradient><path d="M248.14 410.75C248.14 410.75 294.14 427.55 332.54 431.25C357.04 433.55 377.24 442.55 377.24 442.55C351.42 436.19 301.24 446.15 248.14 410.75Z" id="bHeWDC3rv"></path><linearGradient id="gradientacfoHc6rZ" gradientUnits="userSpaceOnUse" x1="290.85" y1="450.23" x2="334.55" y2="403.02"><stop style="stop-color: #54b948;stop-opacity: 1" offset="0%"></stop><stop style="stop-color: #00a651;stop-opacity: 1" offset="37.64%"></stop><stop style="stop-color: #005826;stop-opacity: 1" offset="100%"></stop></linearGradient><path d="M366.74 428.35C366.74 428.35 338.04 413.05 298.24 406.65C258.44 400.35 221.34 377.35 221.34 377.35C250.42 387.55 280.34 426.05 366.74 428.35Z" id="a2bEnw8iC"></path><linearGradient id="gradientc5ZfD0jJg" gradientUnits="userSpaceOnUse" x1="273.26" y1="425.31" x2="314.93" y2="380.31"><stop style="stop-color: #54b948;stop-opacity: 1" offset="0%"></stop><stop style="stop-color: #00a651;stop-opacity: 1" offset="37.64%"></stop><stop style="stop-color: #005826;stop-opacity: 1" offset="100%"></stop></linearGradient><path d="M351.54 410.65C351.54 410.65 325.34 395.45 299.24 391.35C273.14 387.15 247.24 381.75 214.84 360.35C242.18 370.41 262.74 404.25 351.54 410.65Z" id="e3wSG5iwEB"></path><linearGradient id="gradiente45jN2uCi" gradientUnits="userSpaceOnUse" x1="264.2" y1="406.03" x2="302.25" y2="364.93"><stop style="stop-color: #54b948;stop-opacity: 1" offset="0%"></stop><stop style="stop-color: #00a651;stop-opacity: 1" offset="37.64%"></stop><stop style="stop-color: #005826;stop-opacity: 1" offset="100%"></stop></linearGradient><path d="M335.84 391.05C335.84 391.05 313.84 378.65 278.14 370.95C242.44 363.25 208.64 340.05 208.64 340.05C234.08 350.25 274.44 395.55 335.84 391.05Z" id="c4NoweDjei"></path><linearGradient id="gradienta4HgSJ31l" gradientUnits="userSpaceOnUse" x1="255.61" y1="383.54" x2="288.9" y2="347.58"><stop style="stop-color: #54b948;stop-opacity: 1" offset="0%"></stop><stop style="stop-color: #00a651;stop-opacity: 1" offset="37.64%"></stop><stop style="stop-color: #005826;stop-opacity: 1" offset="100%"></stop></linearGradient><path d="M321.64 373.05C321.64 373.05 304.14 359.55 269.14 349.85C234.14 340.15 210.34 328.45 199.54 321.95C223.96 332.17 260.04 365.95 321.64 373.05Z" id="c5UX0FQbjl"></path><linearGradient id="gradienta66eKOSLq" gradientUnits="userSpaceOnUse" x1="245.19" y1="364.12" x2="276.1" y2="330.73"><stop style="stop-color: #54b948;stop-opacity: 1" offset="0%"></stop><stop style="stop-color: #00a651;stop-opacity: 1" offset="37.64%"></stop><stop style="stop-color: #005826;stop-opacity: 1" offset="100%"></stop></linearGradient><path d="M305.04 349.35C305.04 349.35 291.14 338.75 267.14 332.45C243.04 326.05 207.04 310.45 176.24 288.75C202 300.87 234.74 344.25 305.04 349.35Z" id="bwajJ4B7a"></path><linearGradient id="gradientb8nX5KXQ0" gradientUnits="userSpaceOnUse" x1="226.02" y1="334.79" x2="255.23" y2="303.23"><stop style="stop-color: #54b948;stop-opacity: 1" offset="0%"></stop><stop style="stop-color: #00a651;stop-opacity: 1" offset="37.64%"></stop><stop style="stop-color: #005826;stop-opacity: 1" offset="100%"></stop></linearGradient><path d="M295.54 332.05C295.54 332.05 273.94 317.05 255.64 311.85C237.34 306.65 194.14 288.95 152.84 255.05C181.38 270.45 222.84 324.15 295.54 332.05Z" id="bdpGk2lcE"></path><linearGradient id="gradienta3mRhzBFgJ" gradientUnits="userSpaceOnUse" x1="210.46" y1="308.41" x2="238.01" y2="278.66"><stop style="stop-color: #54b948;stop-opacity: 1" offset="0%"></stop><stop style="stop-color: #00a651;stop-opacity: 1" offset="37.64%"></stop><stop style="stop-color: #005826;stop-opacity: 1" offset="100%"></stop></linearGradient><path d="M286.04 316.75C286.04 316.75 284.84 311.15 247.64 292.95C210.44 274.75 188.84 261.35 155.54 224.15C181.64 242.67 197.84 292.85 286.04 316.75Z" id="byjkK78V7"></path><linearGradient id="gradientd8niN8y37" gradientUnits="userSpaceOnUse" x1="210.04" y1="282.12" x2="228.14" y2="262.58"><stop style="stop-color: #54b948;stop-opacity: 1" offset="0%"></stop><stop style="stop-color: #00a651;stop-opacity: 1" offset="37.64%"></stop><stop style="stop-color: #005826;stop-opacity: 1" offset="100%"></stop></linearGradient><path d="M277.84 301.35C277.84 301.35 265.84 286.35 236.14 269.85C206.44 253.45 198.44 248.25 168.94 223.25C190.72 238.87 238.34 292.95 277.84 301.35Z" id="a3Q2oz4cXI"></path><linearGradient id="gradienta1ojJAg6ug" gradientUnits="userSpaceOnUse" x1="217.53" y1="268.64" x2="229.39" y2="255.83"><stop style="stop-color: #54b948;stop-opacity: 1" offset="0%"></stop><stop style="stop-color: #00a651;stop-opacity: 1" offset="37.64%"></stop><stop style="stop-color: #005826;stop-opacity: 1" offset="100%"></stop></linearGradient><path d="M267.14 284.45C267.14 284.45 238.84 257.45 213.34 240.25C187.74 223.15 147.04 178.95 147.04 178.95C171.06 200.05 223.34 269.25 267.14 284.45Z" id="cdf3UIIgc"></path><linearGradient id="gradienta1it5AY8Jj" gradientUnits="userSpaceOnUse" x1="202.03" y1="237.11" x2="208.52" y2="230.1"><stop style="stop-color: #54b948;stop-opacity: 1" offset="0%"></stop><stop style="stop-color: #00a651;stop-opacity: 1" offset="37.64%"></stop><stop style="stop-color: #005826;stop-opacity: 1" offset="100%"></stop></linearGradient><path d="M262.64 269.75C262.64 269.75 251.74 256.95 227.14 236.35C202.54 215.75 174.94 192.15 149.84 164.85C172.4 185.83 214.54 247.15 262.64 269.75Z" id="e2LpUVU5IM"></path><linearGradient id="gradientc1Kz1YrMGm" gradientUnits="userSpaceOnUse" x1="201.38" y1="222.57" x2="206.85" y2="216.65"><stop style="stop-color: #54b948;stop-opacity: 1" offset="0%"></stop><stop style="stop-color: #00a651;stop-opacity: 1" offset="37.64%"></stop><stop style="stop-color: #005826;stop-opacity: 1" offset="100%"></stop></linearGradient><path d="M253.24 249.25C253.24 249.25 238.84 230.75 220.54 211.15C202.24 191.55 179.34 178.45 156.84 141.75C176.12 163.25 187.34 200.05 253.24 249.25Z" id="lvoCvkOF2"></path><linearGradient id="gradientd4maZVXQFr" gradientUnits="userSpaceOnUse" x1="199.22" y1="201.94" x2="209.68" y2="190.64"><stop style="stop-color: #54b948;stop-opacity: 1" offset="0%"></stop><stop style="stop-color: #00a651;stop-opacity: 1" offset="37.64%"></stop><stop style="stop-color: #005826;stop-opacity: 1" offset="100%"></stop></linearGradient><path d="M331.14 490.15C331.14 490.15 365.24 491.75 385.94 487.95C399.34 485.55 414.24 484.75 419.74 483.95C402.02 485.19 390.34 499.75 331.14 490.15Z" id="a9e7TrUsV"></path><path d="M271.74 465.15C271.74 465.15 296.84 476.85 348.24 475.05C377.84 474.05 391.14 473.05 406.64 471.95C379.66 470.59 335.24 491.25 271.74 465.15Z" id="i1A5MZ6E2h"></path><path d="M250.54 423.85C250.54 423.85 281.34 447.95 332.14 453.35C372.34 457.55 394.54 460.65 394.54 460.65C365.74 453.29 301.64 469.75 250.54 423.85Z" id="b155qTlXNl"></path><path d="M248.14 410.75C248.14 410.75 281.54 428.15 332.24 435.45C351.54 438.25 377.54 442.65 377.54 442.65C351.66 436.27 301.14 446.15 248.14 410.75Z" id="b1YtnD9DP2"></path><path d="M367.04 428.45C367.04 428.45 333.04 420.45 300.44 412.15C261.44 402.25 221.34 377.35 221.34 377.35C250.48 387.57 280.64 426.15 367.04 428.45Z" id="b19T5fT59m"></path><path d="M351.54 410.65C351.54 410.65 324.74 400.75 298.64 396.65C272.54 392.55 247.24 381.75 214.84 360.35C242.18 370.41 262.74 404.25 351.54 410.65Z" id="aD4gsPHp7"></path><path d="M336.14 391.15C336.14 391.15 320.24 387.55 286.74 379.05C241.94 367.65 208.94 340.15 208.94 340.15C234.38 350.35 274.74 395.65 336.14 391.15Z" id="cQvx7YYB0"></path><path d="M322.04 373.15C322.04 373.15 299.34 364.85 268.44 354.55C233.94 342.95 210.64 328.55 199.94 322.05C224.36 332.27 260.44 366.05 322.04 373.15Z" id="b2KMTIj5hh"></path><path d="M305.34 349.45C305.34 349.45 289.54 342.95 265.44 336.75C232.04 328.35 207.34 310.55 176.54 288.85C202.3 300.97 235.04 344.35 305.34 349.45Z" id="b2n91Usut0"></path><path d="M295.94 332.15C295.94 332.15 272.04 322.15 253.74 316.95C235.34 311.75 194.54 289.05 153.24 255.15C181.78 270.55 223.24 324.25 295.94 332.15Z" id="c6VABlZrT"></path><path d="M286.34 316.85C286.34 316.85 282.74 314.95 245.44 296.75C208.14 278.55 181.94 257.95 155.54 224.15C181.7 242.69 198.14 292.95 286.34 316.85Z" id="g1DX6i2Ii3"></path><path d="M277.84 301.35C277.84 301.35 268.24 294.25 240.94 278.45C210.54 260.85 198.44 248.25 168.94 223.25C190.72 238.87 238.34 292.95 277.84 301.35Z" id="aP95VT8ys"></path><path d="M266.24 283.35C266.24 283.35 245.54 269.05 217.04 246.65C192.84 227.75 146.14 177.85 146.14 177.85C170.16 198.95 222.44 268.15 266.24 283.35Z" id="f29ilvXJqN"></path><path d="M262.64 269.75C262.64 269.75 249.74 259.85 225.14 239.35C200.54 218.85 174.94 192.15 149.84 164.85C172.4 185.83 214.54 247.15 262.64 269.75Z" id="arFTpdGiu"></path><path d="M253.04 248.95C253.04 248.95 234.64 233.15 216.44 213.55C198.24 193.95 179.34 178.45 156.84 141.75C176.08 163.19 187.14 199.75 253.04 248.95Z" id="amD1GoTbJ"></path><path d="M240.04 215.75C240.04 215.75 224.14 191.75 210.34 176.25C196.54 160.75 174.94 139.95 159.94 116.95C175.96 136.71 201.54 186.15 240.04 215.75Z" id="i4wNaLMfyB"></path><linearGradient id="gradientb6hsaQQT2" gradientUnits="userSpaceOnUse" x1="193.49" y1="173.38" x2="206.17" y2="159.68"><stop style="stop-color: #54b948;stop-opacity: 1" offset="0%"></stop><stop style="stop-color: #00a651;stop-opacity: 1" offset="37.64%"></stop><stop style="stop-color: #005826;stop-opacity: 1" offset="100%"></stop></linearGradient><path d="M240.04 215.75C240.04 215.75 221.34 197.55 207.34 179.65C194.64 163.35 174.94 139.95 159.94 116.95C175.96 136.71 201.54 186.15 240.04 215.75Z" id="e12EmAWHOC"></path><path d="M231.74 191.45C231.74 191.45 228.34 184.25 217.04 166.55C205.74 148.85 186.84 129.55 173.74 94.65C185.34 114.01 194.14 156.55 231.74 191.45Z" id="iuE7hCJVx"></path><linearGradient id="gradientd3AWmD8A2" gradientUnits="userSpaceOnUse" x1="191.98" y1="154.69" x2="213.48" y2="131.47"><stop style="stop-color: #54b948;stop-opacity: 1" offset="0%"></stop><stop style="stop-color: #00a651;stop-opacity: 1" offset="37.64%"></stop><stop style="stop-color: #005826;stop-opacity: 1" offset="100%"></stop></linearGradient><path d="M231.74 191.45C231.74 191.45 223.44 183.05 212.14 165.35C200.84 147.65 186.84 129.55 173.74 94.65C185.34 114.01 194.14 156.55 231.74 191.45Z" id="b1JcvLar3s"></path><path d="M238.84 213.15C238.84 213.15 234.04 184.75 233.54 164.05C233.04 143.35 234.44 113.35 229.74 86.25C231.56 111.63 246.64 165.25 238.84 213.15Z" id="a1JiNzP7HR"></path><linearGradient id="gradientd5QXkfy4d" gradientUnits="userSpaceOnUse" x1="243.86" y1="150.42" x2="225.24" y2="149.1"><stop style="stop-color: #54b948;stop-opacity: 1" offset="0%"></stop><stop style="stop-color: #00a651;stop-opacity: 1" offset="37.64%"></stop><stop style="stop-color: #005826;stop-opacity: 1" offset="100%"></stop></linearGradient><path d="M238.84 213.15C238.84 213.15 240.04 187.05 238.04 164.45C236.14 143.85 234.44 113.35 229.74 86.25C231.56 111.63 246.64 165.25 238.84 213.15Z" id="gqcsGinel"></path><path d="M228.94 180.25C228.94 180.25 226.94 172.35 224.74 151.25C222.54 130.15 226.44 103.45 213.54 66.85C216.62 89.53 239.24 130.25 228.94 180.25Z" id="b8XLv0ARt"></path><linearGradient id="gradientg7RvxxHvb7" gradientUnits="userSpaceOnUse" x1="239.89" y1="127.48" x2="202.57" y2="119.72"><stop style="stop-color: #54b948;stop-opacity: 1" offset="0%"></stop><stop style="stop-color: #00a651;stop-opacity: 1" offset="37.64%"></stop><stop style="stop-color: #005826;stop-opacity: 1" offset="100%"></stop></linearGradient><path d="M228.94 180.25C228.94 180.25 230.74 168.65 228.54 147.45C226.34 126.25 226.44 103.45 213.54 66.85C216.62 89.53 239.24 130.25 228.94 180.25Z" id="f7gOgg8Jj"></path><path d="M191.04 71.35C191.04 71.35 223.64 142.35 228.64 180.55C221.12 158.71 199.94 131.55 191.04 71.35Z" id="f1oBqinJX5"></path><linearGradient id="gradientep7iivQjF" gradientUnits="userSpaceOnUse" x1="191.33" y1="145.94" x2="228.4" y2="105.9"><stop style="stop-color: #54b948;stop-opacity: 1" offset="0%"></stop><stop style="stop-color: #00a651;stop-opacity: 1" offset="37.64%"></stop><stop style="stop-color: #005826;stop-opacity: 1" offset="100%"></stop></linearGradient><path d="M191.04 71.35C191.04 71.35 211.14 138.95 228.64 180.55C221.12 158.71 199.94 131.55 191.04 71.35Z" id="b1VS1GkeEg"></path><path d="M435.84 396.15C435.84 396.15 430.24 427.85 424.44 444.65C417.44 464.65 418.24 481.45 418.64 483.65C422.08 466.15 438.34 453.75 435.84 396.15Z" id="a2SU9MX6m9"></path><linearGradient id="gradiente4ZVAGwce" gradientUnits="userSpaceOnUse" x1="453.65" y1="421.04" x2="400.88" y2="458.83"><stop style="stop-color: #54b948;stop-opacity: 1" offset="0%"></stop><stop style="stop-color: #00a651;stop-opacity: 1" offset="37.64%"></stop><stop style="stop-color: #005826;stop-opacity: 1" offset="100%"></stop></linearGradient><path d="M435.94 396.55C435.94 396.55 433.24 430.55 426.94 450.65C422.74 463.65 420.04 478.35 418.64 483.65C422.1 466.23 437.94 456.45 435.94 396.55Z" id="a3Y5mdZX2g"></path><path d="M417.14 334.75C417.14 334.75 425.44 371.05 415.34 406.55C405.14 442.25 404.84 461.85 407.04 469.45C409.06 442.51 435.14 401.05 417.14 334.75Z" id="aeMRAzsQt"></path><linearGradient id="gradientdRevGY9jF" gradientUnits="userSpaceOnUse" x1="447.32" y1="376.87" x2="376.86" y2="427.34"><stop style="stop-color: #54b948;stop-opacity: 1" offset="0%"></stop><stop style="stop-color: #00a651;stop-opacity: 1" offset="37.64%"></stop><stop style="stop-color: #005826;stop-opacity: 1" offset="100%"></stop></linearGradient><path d="M417.14 335.15C417.14 335.15 425.54 361.45 417.44 412.35C412.74 441.45 410.14 454.45 407.04 469.85C409.06 442.91 435.14 401.45 417.14 335.15Z" id="a5T4trrFlY"></path><path d="M393.84 309.55C393.84 309.55 409.64 344.65 400.04 394.95C390.54 445.05 396.64 457.75 396.64 457.75C396.08 428.11 426.84 369.75 393.84 309.55Z" id="b19Kj5y6SU"></path><linearGradient id="gradiente1yzo3MGeC" gradientUnits="userSpaceOnUse" x1="425.92" y1="366.22" x2="364.45" y2="401.07"><stop style="stop-color: #54b948;stop-opacity: 1" offset="0%"></stop><stop style="stop-color: #00a651;stop-opacity: 1" offset="37.64%"></stop><stop style="stop-color: #005826;stop-opacity: 1" offset="100%"></stop></linearGradient><path d="M393.84 309.45C393.84 309.45 410.24 344.95 403.84 395.65C398.74 435.75 396.64 458.05 396.64 458.05C396.08 428.33 426.84 369.65 393.84 309.45Z" id="d19SzRFkkz"></path><path d="M384.04 309.45C384.04 309.45 387.24 358.25 379.94 396.25C375.34 420.35 378.34 442.25 378.34 442.25C379.48 415.69 403.14 370.25 384.04 309.45Z" id="c4GBU4TOQv"></path><linearGradient id="gradienthANCNJzfa" gradientUnits="userSpaceOnUse" x1="410.09" y1="361.45" x2="352.5" y2="390.15"><stop style="stop-color: #54b948;stop-opacity: 1" offset="0%"></stop><stop style="stop-color: #00a651;stop-opacity: 1" offset="37.64%"></stop><stop style="stop-color: #005826;stop-opacity: 1" offset="100%"></stop></linearGradient><path d="M384.14 309.35C384.14 309.35 391.44 346.35 384.24 396.95C381.44 416.35 378.44 442.55 378.44 442.55C379.58 415.91 403.24 370.25 384.14 309.35Z" id="a3dMmsk5Fb"></path><path d="M367.54 425.95C367.54 425.95 359.84 394.35 363.64 354.15C367.34 314.05 354.34 272.45 354.34 272.45C356.98 303.15 386.74 341.65 367.54 425.95Z" id="i2e3eRiF15"></path><linearGradient id="gradienthqC8mJzYX" gradientUnits="userSpaceOnUse" x1="387.9" y1="334.66" x2="333.92" y2="363.79"><stop style="stop-color: #54b948;stop-opacity: 1" offset="0%"></stop><stop style="stop-color: #00a651;stop-opacity: 1" offset="37.64%"></stop><stop style="stop-color: #005826;stop-opacity: 1" offset="100%"></stop></linearGradient><path d="M367.54 426.35C367.54 426.35 368.34 391.45 368.44 357.75C368.44 317.45 354.34 272.45 354.34 272.45C356.98 303.23 386.84 342.05 367.54 426.35Z" id="a4gWt7U2ub"></path><path d="M352.74 409.65C352.74 409.65 344.74 380.45 347.44 354.15C350.04 327.85 351.44 301.45 339.04 264.65C341.78 293.65 369.24 322.15 352.74 409.65Z" id="byYLuxEmL"></path><linearGradient id="gradientabLxodEPs" gradientUnits="userSpaceOnUse" x1="370.61" y1="324" x2="321.17" y2="350.3"><stop style="stop-color: #54b948;stop-opacity: 1" offset="0%"></stop><stop style="stop-color: #00a651;stop-opacity: 1" offset="37.64%"></stop><stop style="stop-color: #005826;stop-opacity: 1" offset="100%"></stop></linearGradient><path d="M352.74 409.65C352.74 409.65 350.04 381.25 352.64 354.85C355.34 328.65 351.44 301.45 339.04 264.65C341.78 293.65 369.24 322.15 352.74 409.65Z" id="aDXZo0WMP"></path><path d="M336.54 388.45C336.54 388.45 331.54 363.75 335.24 327.35C338.94 290.95 327.14 251.75 327.14 251.75C329.02 279.09 359.64 331.45 336.54 388.45Z" id="hpCaSYrxB"></path><linearGradient id="gradientgu4Kmn3Jd" gradientUnits="userSpaceOnUse" x1="354.03" y1="309.81" x2="309.58" y2="330.42"><stop style="stop-color: #54b948;stop-opacity: 1" offset="0%"></stop><stop style="stop-color: #00a651;stop-opacity: 1" offset="37.64%"></stop><stop style="stop-color: #005826;stop-opacity: 1" offset="100%"></stop></linearGradient><path d="M336.54 388.85C336.54 388.85 338.04 372.65 340.14 338.15C343.04 291.95 327.14 252.15 327.14 252.15C329.02 279.49 359.64 331.85 336.54 388.85Z" id="d1PUcIcgf0"></path><path d="M319.94 369.05C319.94 369.05 314.84 347.55 320.34 311.65C325.84 275.55 325.04 249.15 323.44 236.65C322.74 263.13 338.74 309.95 319.94 369.05Z" id="a2P5xEGmDd"></path><linearGradient id="gradientdomL5LhQL" gradientUnits="userSpaceOnUse" x1="343.29" y1="295.54" x2="300.16" y2="310.04"><stop style="stop-color: #54b948;stop-opacity: 1" offset="0%"></stop><stop style="stop-color: #00a651;stop-opacity: 1" offset="37.64%"></stop><stop style="stop-color: #005826;stop-opacity: 1" offset="100%"></stop></linearGradient><path d="M319.94 369.35C319.94 369.35 321.74 345.15 324.94 312.85C328.54 276.65 325.04 249.45 323.44 236.95C322.74 263.43 338.74 310.25 319.94 369.35Z" id="d1LprKHKOg"></path><path d="M305.94 348.55C305.94 348.55 303.34 331.35 309.24 307.15C315.14 282.95 318.64 243.85 314.34 206.45C312.66 234.87 335.14 284.45 305.94 348.55Z" id="d4zPexGtQ"></path><linearGradient id="gradientdrANcuzr" gradientUnits="userSpaceOnUse" x1="330.95" y1="272.21" x2="289.27" y2="282.76"><stop style="stop-color: #54b948;stop-opacity: 1" offset="0%"></stop><stop style="stop-color: #00a651;stop-opacity: 1" offset="37.64%"></stop><stop style="stop-color: #005826;stop-opacity: 1" offset="100%"></stop></linearGradient><path d="M305.84 348.95C305.84 348.95 307.64 331.95 313.84 307.85C322.44 274.35 318.64 244.25 314.24 206.85C312.56 235.27 335.04 284.85 305.84 348.95Z" id="dx0A9B34C"></path><path d="M295.74 333.85C295.74 333.85 293.34 307.75 297.84 289.15C302.44 270.65 308.24 224.45 299.04 171.75C298.38 204.17 324.74 266.75 295.74 333.85Z" id="b1RPWyHCzj"></path><linearGradient id="gradientfohdQZuvF" gradientUnits="userSpaceOnUse" x1="317.25" y1="248.13" x2="277.78" y2="257.47"><stop style="stop-color: #54b948;stop-opacity: 1" offset="0%"></stop><stop style="stop-color: #00a651;stop-opacity: 1" offset="37.64%"></stop><stop style="stop-color: #005826;stop-opacity: 1" offset="100%"></stop></linearGradient><path d="M295.74 334.25C295.74 334.25 298.74 308.55 303.24 289.95C307.84 271.45 308.24 224.75 299.04 172.15C298.38 204.57 324.74 267.15 295.74 334.25Z" id="aJ0ttJOuN"></path><path d="M284.84 315.85C284.84 315.85 280.84 311.75 286.24 270.65C291.64 229.55 292.14 204.15 279.54 155.95C280.6 187.93 313.44 229.05 284.84 315.85Z" id="a20v9ztBmY"></path><linearGradient id="gradientdzSkIOICX" gradientUnits="userSpaceOnUse" x1="297.82" y1="233.26" x2="271.53" y2="237.57"><stop style="stop-color: #54b948;stop-opacity: 1" offset="0%"></stop><stop style="stop-color: #00a651;stop-opacity: 1" offset="37.64%"></stop><stop style="stop-color: #005826;stop-opacity: 1" offset="100%"></stop></linearGradient><path d="M284.74 316.25C284.74 316.25 285.14 312.15 290.54 271.05C295.94 229.95 293.14 196.45 279.54 155.95C280.58 188.01 313.34 229.45 284.74 316.25Z" id="ba2RNsPNI"></path><path d="M276.54 296.55C276.54 296.55 271.04 278.15 274.34 244.35C277.64 210.55 278.04 201.05 274.24 162.55C274.7 189.35 292.14 259.35 276.54 296.55Z" id="f5ZoC253P"></path><linearGradient id="gradienta17gevDAmH" gradientUnits="userSpaceOnUse" x1="283.86" y1="228.36" x2="266.57" y2="230.83"><stop style="stop-color: #54b948;stop-opacity: 1" offset="0%"></stop><stop style="stop-color: #00a651;stop-opacity: 1" offset="37.64%"></stop><stop style="stop-color: #005826;stop-opacity: 1" offset="100%"></stop></linearGradient><path d="M276.54 296.55C276.54 296.55 276.14 284.55 278.64 253.15C281.44 218.25 278.04 201.05 274.24 162.55C274.7 189.35 292.14 259.35 276.54 296.55Z" id="c1pTRU2KNN"></path><path d="M268.54 284.35C268.54 284.35 263.64 245.55 264.94 214.85C266.24 184.15 254.84 125.05 254.84 125.05C257.58 156.91 282.34 240.05 268.54 284.35Z" id="a54BVnijBY"></path><linearGradient id="gradientb1hklBuQ1c" gradientUnits="userSpaceOnUse" x1="269.07" y1="203.92" x2="259.57" y2="204.99"><stop style="stop-color: #54b948;stop-opacity: 1" offset="0%"></stop><stop style="stop-color: #00a651;stop-opacity: 1" offset="37.64%"></stop><stop style="stop-color: #005826;stop-opacity: 1" offset="100%"></stop></linearGradient><path d="M268.54 284.35C268.54 284.35 269.24 259.15 268.24 222.95C267.34 192.25 254.84 125.05 254.84 125.05C257.58 156.91 282.34 240.05 268.54 284.35Z" id="hYhLQEneG"></path><path d="M250.44 244.15C250.44 244.15 247.04 227.65 245.94 195.65C244.84 163.65 243.14 127.35 237.04 90.65C239.72 121.35 262.14 192.35 250.44 244.15Z" id="d3iDFC0you"></path><linearGradient id="gradienth84pAlreX" gradientUnits="userSpaceOnUse" x1="250.87" y1="166.8" x2="242.84" y2="167.48"><stop style="stop-color: #54b948;stop-opacity: 1" offset="0%"></stop><stop style="stop-color: #00a651;stop-opacity: 1" offset="37.64%"></stop><stop style="stop-color: #005826;stop-opacity: 1" offset="100%"></stop></linearGradient><path d="M250.44 244.15C250.44 244.15 250.54 227.95 249.54 195.85C248.54 163.75 243.14 127.35 237.04 90.65C239.72 121.35 262.14 192.35 250.44 244.15Z" id="a3l60m7ft"></path><path d="M259.84 267.95C259.84 267.95 256.24 243.75 254.34 217.15C252.34 190.45 258.44 164.45 246.94 123.05C249.52 152.03 268.64 186.15 259.84 267.95Z" id="c13QZL6BLq"></path><linearGradient id="gradientfg1SkfZ7g" gradientUnits="userSpaceOnUse" x1="255.47" y1="183.7" x2="260.33" y2="251.8"><stop style="stop-color: #54b948;stop-opacity: 1" offset="0%"></stop><stop style="stop-color: #00a651;stop-opacity: 1" offset="37.64%"></stop><stop style="stop-color: #005826;stop-opacity: 1" offset="100%"></stop></linearGradient><path d="M259.84 267.95C259.84 267.95 260.84 242.35 258.94 215.65C256.94 188.95 258.44 164.45 246.94 123.05C249.52 152.03 268.64 186.15 259.84 267.95Z" id="b2qwigAkDK"></path><path d="M228.34 180.95C227.84 178.65 228.74 177.55 228.34 175.25C228.34 175.25 260.94 347.65 455.74 510.75C455.03 510.98 451.5 512.11 445.14 514.15C324.94 410.15 252.67 299.08 228.34 180.95Z" id="c5I50VHRf"></path><linearGradient id="gradientb7bu0F2SvU" gradientUnits="userSpaceOnUse" x1="300.55" y1="309.41" x2="503.12" y2="510.76"><stop style="stop-color: #54b948;stop-opacity: 1" offset="0%"></stop><stop style="stop-color: #00a651;stop-opacity: 1" offset="37.64%"></stop><stop style="stop-color: #005826;stop-opacity: 1" offset="100%"></stop></linearGradient><path d="M245.6 44.9C245.4 47.3 245.2 49.8 244.9 52.5C245.3 47.6 245.46 46.42 245.6 44.9Z" id="a5LFJcfSYI"></path></defs><g><g><g><use xlink:href="#b4EeKN0jcs" opacity="1" fill="url(#gradientaL1OvAU3l)"></use><g><use xlink:href="#b4EeKN0jcs" opacity="1" fill-opacity="0" stroke="#000000" stroke-width="1" stroke-opacity="0"></use></g></g><g><use xlink:href="#caArbLCzh" opacity="1" fill="url(#gradientc19M77jBi3)"></use><g><use xlink:href="#caArbLCzh" opacity="1" fill-opacity="0" stroke="#000000" stroke-width="1" stroke-opacity="0"></use></g></g><g><use xlink:href="#b1Otn1sCZg" opacity="1" fill="url(#gradientbV2Ywmuts)"></use><g><use xlink:href="#b1Otn1sCZg" opacity="1" fill-opacity="0" stroke="#000000" stroke-width="1" stroke-opacity="0"></use></g></g><g><use xlink:href="#bHeWDC3rv" opacity="1" fill="url(#gradientacfoHc6rZ)"></use><g><use xlink:href="#bHeWDC3rv" opacity="1" fill-opacity="0" stroke="#000000" stroke-width="1" stroke-opacity="0"></use></g></g><g><use xlink:href="#a2bEnw8iC" opacity="1" fill="url(#gradientc5ZfD0jJg)"></use><g><use xlink:href="#a2bEnw8iC" opacity="1" fill-opacity="0" stroke="#000000" stroke-width="1" stroke-opacity="0"></use></g></g><g><use xlink:href="#e3wSG5iwEB" opacity="1" fill="url(#gradiente45jN2uCi)"></use><g><use xlink:href="#e3wSG5iwEB" opacity="1" fill-opacity="0" stroke="#000000" stroke-width="1" stroke-opacity="0"></use></g></g><g><use xlink:href="#c4NoweDjei" opacity="1" fill="url(#gradienta4HgSJ31l)"></use><g><use xlink:href="#c4NoweDjei" opacity="1" fill-opacity="0" stroke="#000000" stroke-width="1" stroke-opacity="0"></use></g></g><g><use xlink:href="#c5UX0FQbjl" opacity="1" fill="url(#gradienta66eKOSLq)"></use><g><use xlink:href="#c5UX0FQbjl" opacity="1" fill-opacity="0" stroke="#000000" stroke-width="1" stroke-opacity="0"></use></g></g><g><use xlink:href="#bwajJ4B7a" opacity="1" fill="url(#gradientb8nX5KXQ0)"></use><g><use xlink:href="#bwajJ4B7a" opacity="1" fill-opacity="0" stroke="#000000" stroke-width="1" stroke-opacity="0"></use></g></g><g><use xlink:href="#bdpGk2lcE" opacity="1" fill="url(#gradienta3mRhzBFgJ)"></use><g><use xlink:href="#bdpGk2lcE" opacity="1" fill-opacity="0" stroke="#000000" stroke-width="1" stroke-opacity="0"></use></g></g><g><use xlink:href="#byjkK78V7" opacity="1" fill="url(#gradientd8niN8y37)"></use><g><use xlink:href="#byjkK78V7" opacity="1" fill-opacity="0" stroke="#000000" stroke-width="1" stroke-opacity="0"></use></g></g><g><use xlink:href="#a3Q2oz4cXI" opacity="1" fill="url(#gradienta1ojJAg6ug)"></use><g><use xlink:href="#a3Q2oz4cXI" opacity="1" fill-opacity="0" stroke="#000000" stroke-width="1" stroke-opacity="0"></use></g></g><g><use xlink:href="#cdf3UIIgc" opacity="1" fill="url(#gradienta1it5AY8Jj)"></use><g><use xlink:href="#cdf3UIIgc" opacity="1" fill-opacity="0" stroke="#000000" stroke-width="1" stroke-opacity="0"></use></g></g><g><use xlink:href="#e2LpUVU5IM" opacity="1" fill="url(#gradientc1Kz1YrMGm)"></use><g><use xlink:href="#e2LpUVU5IM" opacity="1" fill-opacity="0" stroke="#000000" stroke-width="1" stroke-opacity="0"></use></g></g><g><use xlink:href="#lvoCvkOF2" opacity="1" fill="url(#gradientd4maZVXQFr)"></use><g><use xlink:href="#lvoCvkOF2" opacity="1" fill-opacity="0" stroke="#000000" stroke-width="1" stroke-opacity="0"></use></g></g><g><use xlink:href="#a9e7TrUsV" opacity="1" fill="#39b54a" fill-opacity="1"></use><g><use xlink:href="#a9e7TrUsV" opacity="1" fill-opacity="0" stroke="#000000" stroke-width="1" stroke-opacity="0"></use></g></g><g><use xlink:href="#i1A5MZ6E2h" opacity="1" fill="#39b54a" fill-opacity="1"></use><g><use xlink:href="#i1A5MZ6E2h" opacity="1" fill-opacity="0" stroke="#000000" stroke-width="1" stroke-opacity="0"></use></g></g><g><use xlink:href="#b155qTlXNl" opacity="1" fill="#39b54a" fill-opacity="1"></use><g><use xlink:href="#b155qTlXNl" opacity="1" fill-opacity="0" stroke="#000000" stroke-width="1" stroke-opacity="0"></use></g></g><g><use xlink:href="#b1YtnD9DP2" opacity="1" fill="#39b54a" fill-opacity="1"></use><g><use xlink:href="#b1YtnD9DP2" opacity="1" fill-opacity="0" stroke="#000000" stroke-width="1" stroke-opacity="0"></use></g></g><g><use xlink:href="#b19T5fT59m" opacity="1" fill="#39b54a" fill-opacity="1"></use><g><use xlink:href="#b19T5fT59m" opacity="1" fill-opacity="0" stroke="#000000" stroke-width="1" stroke-opacity="0"></use></g></g><g><use xlink:href="#aD4gsPHp7" opacity="1" fill="#39b54a" fill-opacity="1"></use><g><use xlink:href="#aD4gsPHp7" opacity="1" fill-opacity="0" stroke="#000000" stroke-width="1" stroke-opacity="0"></use></g></g><g><use xlink:href="#cQvx7YYB0" opacity="1" fill="#39b54a" fill-opacity="1"></use><g><use xlink:href="#cQvx7YYB0" opacity="1" fill-opacity="0" stroke="#000000" stroke-width="1" stroke-opacity="0"></use></g></g><g><use xlink:href="#b2KMTIj5hh" opacity="1" fill="#39b54a" fill-opacity="1"></use><g><use xlink:href="#b2KMTIj5hh" opacity="1" fill-opacity="0" stroke="#000000" stroke-width="1" stroke-opacity="0"></use></g></g><g><use xlink:href="#b2n91Usut0" opacity="1" fill="#39b54a" fill-opacity="1"></use><g><use xlink:href="#b2n91Usut0" opacity="1" fill-opacity="0" stroke="#000000" stroke-width="1" stroke-opacity="0"></use></g></g><g><use xlink:href="#c6VABlZrT" opacity="1" fill="#39b54a" fill-opacity="1"></use><g><use xlink:href="#c6VABlZrT" opacity="1" fill-opacity="0" stroke="#000000" stroke-width="1" stroke-opacity="0"></use></g></g><g><use xlink:href="#g1DX6i2Ii3" opacity="1" fill="#39b54a" fill-opacity="1"></use><g><use xlink:href="#g1DX6i2Ii3" opacity="1" fill-opacity="0" stroke="#000000" stroke-width="1" stroke-opacity="0"></use></g></g><g><use xlink:href="#aP95VT8ys" opacity="1" fill="#39b54a" fill-opacity="1"></use><g><use xlink:href="#aP95VT8ys" opacity="1" fill-opacity="0" stroke="#000000" stroke-width="1" stroke-opacity="0"></use></g></g><g><use xlink:href="#f29ilvXJqN" opacity="1" fill="#39b54a" fill-opacity="1"></use><g><use xlink:href="#f29ilvXJqN" opacity="1" fill-opacity="0" stroke="#000000" stroke-width="1" stroke-opacity="0"></use></g></g><g><use xlink:href="#arFTpdGiu" opacity="1" fill="#39b54a" fill-opacity="1"></use><g><use xlink:href="#arFTpdGiu" opacity="1" fill-opacity="0" stroke="#000000" stroke-width="1" stroke-opacity="0"></use></g></g><g><use xlink:href="#amD1GoTbJ" opacity="1" fill="#39b54a" fill-opacity="1"></use><g><use xlink:href="#amD1GoTbJ" opacity="1" fill-opacity="0" stroke="#000000" stroke-width="1" stroke-opacity="0"></use></g></g><g><use xlink:href="#i4wNaLMfyB" opacity="1" fill="url(#gradientb6hsaQQT2)"></use><g><use xlink:href="#i4wNaLMfyB" opacity="1" fill-opacity="0" stroke="#000000" stroke-width="1" stroke-opacity="0"></use></g></g><g><use xlink:href="#e12EmAWHOC" opacity="1" fill="#39b54a" fill-opacity="1"></use><g><use xlink:href="#e12EmAWHOC" opacity="1" fill-opacity="0" stroke="#000000" stroke-width="1" stroke-opacity="0"></use></g></g><g><use xlink:href="#iuE7hCJVx" opacity="1" fill="url(#gradientd3AWmD8A2)"></use><g><use xlink:href="#iuE7hCJVx" opacity="1" fill-opacity="0" stroke="#000000" stroke-width="1" stroke-opacity="0"></use></g></g><g><use xlink:href="#b1JcvLar3s" opacity="1" fill="#39b54a" fill-opacity="1"></use><g><use xlink:href="#b1JcvLar3s" opacity="1" fill-opacity="0" stroke="#000000" stroke-width="1" stroke-opacity="0"></use></g></g><g><use xlink:href="#a1JiNzP7HR" opacity="1" fill="url(#gradientd5QXkfy4d)"></use><g><use xlink:href="#a1JiNzP7HR" opacity="1" fill-opacity="0" stroke="#000000" stroke-width="1" stroke-opacity="0"></use></g></g><g><use xlink:href="#gqcsGinel" opacity="1" fill="#39b54a" fill-opacity="1"></use><g><use xlink:href="#gqcsGinel" opacity="1" fill-opacity="0" stroke="#000000" stroke-width="1" stroke-opacity="0"></use></g></g><g><use xlink:href="#b8XLv0ARt" opacity="1" fill="url(#gradientg7RvxxHvb7)"></use><g><use xlink:href="#b8XLv0ARt" opacity="1" fill-opacity="0" stroke="#000000" stroke-width="1" stroke-opacity="0"></use></g></g><g><use xlink:href="#f7gOgg8Jj" opacity="1" fill="#39b54a" fill-opacity="1"></use><g><use xlink:href="#f7gOgg8Jj" opacity="1" fill-opacity="0" stroke="#000000" stroke-width="1" stroke-opacity="0"></use></g></g><g><use xlink:href="#f1oBqinJX5" opacity="1" fill="url(#gradientep7iivQjF)"></use><g><use xlink:href="#f1oBqinJX5" opacity="1" fill-opacity="0" stroke="#000000" stroke-width="1" stroke-opacity="0"></use></g></g><g><use xlink:href="#b1VS1GkeEg" opacity="1" fill="#39b54a" fill-opacity="1"></use><g><use xlink:href="#b1VS1GkeEg" opacity="1" fill-opacity="0" stroke="#000000" stroke-width="1" stroke-opacity="0"></use></g></g><g><use xlink:href="#a2SU9MX6m9" opacity="1" fill="url(#gradiente4ZVAGwce)"></use><g><use xlink:href="#a2SU9MX6m9" opacity="1" fill-opacity="0" stroke="#000000" stroke-width="1" stroke-opacity="0"></use></g></g><g><use xlink:href="#a3Y5mdZX2g" opacity="1" fill="#39b54a" fill-opacity="1"></use><g><use xlink:href="#a3Y5mdZX2g" opacity="1" fill-opacity="0" stroke="#000000" stroke-width="1" stroke-opacity="0"></use></g></g><g><use xlink:href="#aeMRAzsQt" opacity="1" fill="url(#gradientdRevGY9jF)"></use><g><use xlink:href="#aeMRAzsQt" opacity="1" fill-opacity="0" stroke="#000000" stroke-width="1" stroke-opacity="0"></use></g></g><g><use xlink:href="#a5T4trrFlY" opacity="1" fill="#39b54a" fill-opacity="1"></use><g><use xlink:href="#a5T4trrFlY" opacity="1" fill-opacity="0" stroke="#000000" stroke-width="1" stroke-opacity="0"></use></g></g><g><use xlink:href="#b19Kj5y6SU" opacity="1" fill="url(#gradiente1yzo3MGeC)"></use><g><use xlink:href="#b19Kj5y6SU" opacity="1" fill-opacity="0" stroke="#000000" stroke-width="1" stroke-opacity="0"></use></g></g><g><use xlink:href="#d19SzRFkkz" opacity="1" fill="#39b54a" fill-opacity="1"></use><g><use xlink:href="#d19SzRFkkz" opacity="1" fill-opacity="0" stroke="#000000" stroke-width="1" stroke-opacity="0"></use></g></g><g><use xlink:href="#c4GBU4TOQv" opacity="1" fill="url(#gradienthANCNJzfa)"></use><g><use xlink:href="#c4GBU4TOQv" opacity="1" fill-opacity="0" stroke="#000000" stroke-width="1" stroke-opacity="0"></use></g></g><g><use xlink:href="#a3dMmsk5Fb" opacity="1" fill="#39b54a" fill-opacity="1"></use><g><use xlink:href="#a3dMmsk5Fb" opacity="1" fill-opacity="0" stroke="#000000" stroke-width="1" stroke-opacity="0"></use></g></g><g><use xlink:href="#i2e3eRiF15" opacity="1" fill="url(#gradienthqC8mJzYX)"></use><g><use xlink:href="#i2e3eRiF15" opacity="1" fill-opacity="0" stroke="#000000" stroke-width="1" stroke-opacity="0"></use></g></g><g><use xlink:href="#a4gWt7U2ub" opacity="1" fill="#39b54a" fill-opacity="1"></use><g><use xlink:href="#a4gWt7U2ub" opacity="1" fill-opacity="0" stroke="#000000" stroke-width="1" stroke-opacity="0"></use></g></g><g><use xlink:href="#byYLuxEmL" opacity="1" fill="url(#gradientabLxodEPs)"></use><g><use xlink:href="#byYLuxEmL" opacity="1" fill-opacity="0" stroke="#000000" stroke-width="1" stroke-opacity="0"></use></g></g><g><use xlink:href="#aDXZo0WMP" opacity="1" fill="#39b54a" fill-opacity="1"></use><g><use xlink:href="#aDXZo0WMP" opacity="1" fill-opacity="0" stroke="#000000" stroke-width="1" stroke-opacity="0"></use></g></g><g><use xlink:href="#hpCaSYrxB" opacity="1" fill="url(#gradientgu4Kmn3Jd)"></use><g><use xlink:href="#hpCaSYrxB" opacity="1" fill-opacity="0" stroke="#000000" stroke-width="1" stroke-opacity="0"></use></g></g><g><use xlink:href="#d1PUcIcgf0" opacity="1" fill="#39b54a" fill-opacity="1"></use><g><use xlink:href="#d1PUcIcgf0" opacity="1" fill-opacity="0" stroke="#000000" stroke-width="1" stroke-opacity="0"></use></g></g><g><use xlink:href="#a2P5xEGmDd" opacity="1" fill="url(#gradientdomL5LhQL)"></use><g><use xlink:href="#a2P5xEGmDd" opacity="1" fill-opacity="0" stroke="#000000" stroke-width="1" stroke-opacity="0"></use></g></g><g><use xlink:href="#d1LprKHKOg" opacity="1" fill="#39b54a" fill-opacity="1"></use><g><use xlink:href="#d1LprKHKOg" opacity="1" fill-opacity="0" stroke="#000000" stroke-width="1" stroke-opacity="0"></use></g></g><g><use xlink:href="#d4zPexGtQ" opacity="1" fill="url(#gradientdrANcuzr)"></use><g><use xlink:href="#d4zPexGtQ" opacity="1" fill-opacity="0" stroke="#000000" stroke-width="1" stroke-opacity="0"></use></g></g><g><use xlink:href="#dx0A9B34C" opacity="1" fill="#39b54a" fill-opacity="1"></use><g><use xlink:href="#dx0A9B34C" opacity="1" fill-opacity="0" stroke="#000000" stroke-width="1" stroke-opacity="0"></use></g></g><g><use xlink:href="#b1RPWyHCzj" opacity="1" fill="url(#gradientfohdQZuvF)"></use><g><use xlink:href="#b1RPWyHCzj" opacity="1" fill-opacity="0" stroke="#000000" stroke-width="1" stroke-opacity="0"></use></g></g><g><use xlink:href="#aJ0ttJOuN" opacity="1" fill="#39b54a" fill-opacity="1"></use><g><use xlink:href="#aJ0ttJOuN" opacity="1" fill-opacity="0" stroke="#000000" stroke-width="1" stroke-opacity="0"></use></g></g><g><use xlink:href="#a20v9ztBmY" opacity="1" fill="url(#gradientdzSkIOICX)"></use><g><use xlink:href="#a20v9ztBmY" opacity="1" fill-opacity="0" stroke="#000000" stroke-width="1" stroke-opacity="0"></use></g></g><g><use xlink:href="#ba2RNsPNI" opacity="1" fill="#39b54a" fill-opacity="1"></use><g><use xlink:href="#ba2RNsPNI" opacity="1" fill-opacity="0" stroke="#000000" stroke-width="1" stroke-opacity="0"></use></g></g><g><use xlink:href="#f5ZoC253P" opacity="1" fill="url(#gradienta17gevDAmH)"></use><g><use xlink:href="#f5ZoC253P" opacity="1" fill-opacity="0" stroke="#000000" stroke-width="1" stroke-opacity="0"></use></g></g><g><use xlink:href="#c1pTRU2KNN" opacity="1" fill="#39b54a" fill-opacity="1"></use><g><use xlink:href="#c1pTRU2KNN" opacity="1" fill-opacity="0" stroke="#000000" stroke-width="1" stroke-opacity="0"></use></g></g><g><use xlink:href="#a54BVnijBY" opacity="1" fill="url(#gradientb1hklBuQ1c)"></use><g><use xlink:href="#a54BVnijBY" opacity="1" fill-opacity="0" stroke="#000000" stroke-width="1" stroke-opacity="0"></use></g></g><g><use xlink:href="#hYhLQEneG" opacity="1" fill="#39b54a" fill-opacity="1"></use><g><use xlink:href="#hYhLQEneG" opacity="1" fill-opacity="0" stroke="#000000" stroke-width="1" stroke-opacity="0"></use></g></g><g><use xlink:href="#d3iDFC0you" opacity="1" fill="url(#gradienth84pAlreX)"></use><g><use xlink:href="#d3iDFC0you" opacity="1" fill-opacity="0" stroke="#000000" stroke-width="1" stroke-opacity="0"></use></g></g><g><use xlink:href="#a3l60m7ft" opacity="1" fill="#39b54a" fill-opacity="1"></use><g><use xlink:href="#a3l60m7ft" opacity="1" fill-opacity="0" stroke="#000000" stroke-width="1" stroke-opacity="0"></use></g></g><g><use xlink:href="#c13QZL6BLq" opacity="1" fill="url(#gradientfg1SkfZ7g)"></use><g><use xlink:href="#c13QZL6BLq" opacity="1" fill-opacity="0" stroke="#000000" stroke-width="1" stroke-opacity="0"></use></g></g><g><use xlink:href="#b2qwigAkDK" opacity="1" fill="#39b54a" fill-opacity="1"></use><g><use xlink:href="#b2qwigAkDK" opacity="1" fill-opacity="0" stroke="#000000" stroke-width="1" stroke-opacity="0"></use></g></g><g><use xlink:href="#c5I50VHRf" opacity="1" fill="url(#gradientb7bu0F2SvU)"></use><g><use xlink:href="#c5I50VHRf" opacity="1" fill-opacity="0" stroke="#000000" stroke-width="1" stroke-opacity="0"></use></g></g><g><use xlink:href="#a5LFJcfSYI" opacity="1" fill="#024724" fill-opacity="1"></use><g><use xlink:href="#a5LFJcfSYI" opacity="1" fill-opacity="0" stroke="#000000" stroke-width="1" stroke-opacity="0"></use></g></g></g></g></svg>